<?xml version="1.0" standalone="no"?><!DOCTYPE svg PUBLIC "-//W3C//DTD SVG 1.1//EN" "http://www.w3.org/Graphics/SVG/1.1/DTD/svg11.dtd"><svg t="1618372364455" class="icon" viewBox="0 0 1024 1024" version="1.1" xmlns="http://www.w3.org/2000/svg" p-id="1143" xmlns:xlink="http://www.w3.org/1999/xlink" width="200" height="200"><defs><style type="text/css"></style></defs><path d="M512 85.333c235.637 0 426.667 191.03 426.667 426.667S747.637 938.667 512 938.667a424.779 424.779 0 0 1-219.125-60.502A2786.56 2786.56 0 0 0 272.82 866.4l-104.405 28.48c-23.893 6.507-45.803-15.413-39.285-39.296l28.437-104.288c-11.008-18.688-18.219-31.221-21.803-37.91A424.885 424.885 0 0 1 85.333 512c0-235.637 191.03-426.667 426.667-426.667zM512 672a32 32 0 1 0 0 64 32 32 0 0 0 0-64z m-2.517-373.333c-48.416 0-92.747 24.16-118.614 63.413a137.088 137.088 0 0 0-15.978 33.237 32 32 0 0 0 60.906 19.691 72.902 72.902 0 0 1 8.523-17.717c14.08-21.376 38.39-34.624 65.163-34.624 42.794 0 77.184 33.6 77.184 74.666S552.267 512 509.472 512a32 32 0 0 0-32 32v64a32 32 0 0 0 64 0v-35.584c62.475-14.219 109.195-69.184 109.195-135.083 0-76.757-63.382-138.666-141.195-138.666z" p-id="1144"></path></svg>